<?xml version="1.0" encoding="UTF-8"?>
<!DOCTYPE svg PUBLIC "-//W3C//DTD SVG 1.1//EN" "http://www.w3.org/Graphics/SVG/1.1/DTD/svg11.dtd">
<!-- Creator: CorelDRAW -->
<svg xmlns="http://www.w3.org/2000/svg" xml:space="preserve" width="770.786mm" height="358.629mm" version="1.1" style="shape-rendering:geometricPrecision; text-rendering:geometricPrecision; image-rendering:optimizeQuality; fill-rule:evenodd; clip-rule:evenodd"
viewBox="0 0 60.9187 28.344"
 xmlns:xlink="http://www.w3.org/1999/xlink"
 xmlns:xodm="http://www.corel.com/coreldraw/odm/2003">
 <defs>
  <style type="text/css">
   <![CDATA[
    .fil1 {fill:#008DD2}
    .fil0 {fill:#FFD000}
   ]]>
  </style>
 </defs>
 <g id="Слой_x0020_1">
  <metadata id="CorelCorpID_0Corel-Layer"/>
  <path class="fil0" d="M26.1511 0.2026c0.0737,0.0276 0.1454,0.06 0.2148,0.097 0.0805,0.043 0.1591,0.0893 0.2356,0.139 0.0819,0.0531 0.1617,0.1096 0.2391,0.1691 0.0777,0.0598 0.1531,0.1228 0.2258,0.1886 0.2845,0.2574 0.5177,0.5665 0.6871,0.9107 0.1709,0.3472 0.2764,0.7231 0.311,1.1086 0.0347,0.3861 -0.002,0.7755 -0.1082,1.1483 -0.1055,0.3705 -0.2797,0.7181 -0.5134,1.0245 -0.1618,0.2122 -0.3558,0.3979 -0.5748,0.5504 -0.2384,0.166 -0.4961,0.3026 -0.7672,0.4069 -0.2694,0.1037 -0.5505,0.1743 -0.8369,0.2104 -0.2599,0.0327 -0.5235,0.0229 -0.7802,-0.029 -0.3209,-0.0649 -0.6305,-0.177 -0.9185,-0.3326 -0.2828,-0.1528 -0.54,-0.349 -0.762,-0.5814 -0.222,-0.2323 -0.4062,-0.4981 -0.5459,-0.7874 -0.1422,-0.2946 -0.2399,-0.6087 -0.2898,-0.9319 -0.0332,-0.2151 -0.0397,-0.4334 -0.0194,-0.6501 0.0216,-0.2296 0.0669,-0.4564 0.1353,-0.6766 0.0693,-0.2234 0.1614,-0.4391 0.2747,-0.6437 0.1098,-0.1984 0.2416,-0.3838 0.3928,-0.5528 0.0945,-0.1055 0.1992,-0.2014 0.3127,-0.2862 0.1353,-0.1011 0.2764,-0.1942 0.4227,-0.2787 0.1463,-0.0846 0.2975,-0.1605 0.4527,-0.2273 0.1304,-0.0561 0.2661,-0.0992 0.405,-0.1286 0.1347,-0.0285 0.2717,-0.0446 0.4092,-0.0481 0.1634,-0.0041 0.3269,0.0007 0.4898,0.0145 0.165,0.014 0.3292,0.037 0.4917,0.0688 0.1417,0.0278 0.281,0.0672 0.4163,0.1178z"/>
  <path class="fil1" d="M9.087 8.5674c0.4056,1.0141 0.8113,2.0282 1.217,3.0422 0.4195,1.0486 0.8391,2.0972 1.2588,3.1458 0.3758,0.9392 0.7517,1.8783 1.1276,2.8174 0.2508,0.6266 0.5018,1.2533 0.7528,1.8798 0.1934,0.4827 0.3865,0.9656 0.5793,1.4485 0.179,0.4483 0.3577,0.8968 0.536,1.3454 0.1497,0.3766 0.2992,0.7533 0.4485,1.13 0.0635,0.1604 0.1262,0.3211 0.1879,0.4821l0.2952 0.7706 0.6936 -2.0351c0.2134,-0.626 0.4292,-1.2511 0.6476,-1.8754 0.3414,-0.9759 0.6838,-1.9514 1.0274,-2.9265 0.3466,-0.9839 0.694,-1.9676 1.0421,-2.951 0.1185,-0.3348 0.2408,-0.6682 0.3668,-1.0002 0.0291,-0.0766 0.0576,-0.1534 0.0855,-0.2304 0.0536,-0.1477 0.107,-0.2955 0.1602,-0.4433 0.0626,-0.1738 0.1249,-0.3477 0.187,-0.5216 0.0646,-0.1811 0.129,-0.3622 0.1932,-0.5434 0.069,-0.1947 0.1383,-0.3893 0.2079,-0.5838 0.0769,-0.2147 0.154,-0.4293 0.2314,-0.6437 0.073,-0.2023 0.1463,-0.4045 0.2198,-0.6066 0.0556,-0.1528 0.1117,-0.3055 0.1682,-0.4579l0.3514 -0.9484 3.0187 -0.0207c0.6287,-0.0043 1.2573,-0.0076 1.886,-0.0099 0.2288,-0.0008 0.4576,0.0033 0.6862,0.0125 0.115,0.0046 0.2297,0.0154 0.3436,0.0324 0.0186,0.0028 0.0349,0.0138 0.0444,0.0301 0.0094,0.0163 0.0109,0.036 0.0041,0.0536 -0.0489,0.1251 -0.0967,0.2507 -0.1435,0.3766 -0.4679,1.2599 -0.9357,2.5197 -1.4035,3.7796 -0.4256,1.1464 -0.8511,2.2929 -1.2763,3.4395 -0.2066,0.5571 -0.4125,1.1144 -0.6176,1.672 -0.7745,2.105 -1.5507,4.2094 -2.3284,6.3132 -0.2087,0.5644 -0.4287,1.1247 -0.6599,1.6802 -0.1194,0.2869 -0.2617,0.5638 -0.4255,0.828 -0.1213,0.1956 -0.2796,0.3657 -0.466,0.5008 -0.1333,0.0965 -0.2747,0.1813 -0.4227,0.2533 -0.1337,0.0651 -0.2747,0.1141 -0.42,0.1461 -0.1653,0.0364 -0.3338,0.0567 -0.5031,0.0606 -0.2315,0.0054 -0.4632,0.0018 -0.6945,-0.0108 -0.365,-0.0198 -0.7303,-0.0328 -1.0957,-0.039 -0.4891,-0.0083 -0.9783,-0.0126 -1.4675,-0.0131 -0.4727,-0.0004 -0.9454,0.0022 -1.4181,0.0079 -0.2317,0.0028 -0.4632,0.0161 -0.6937,0.0398 -0.1826,0.0188 -0.3665,0.0216 -0.5495,0.0086 -0.1612,-0.0115 -0.3202,-0.0435 -0.4733,-0.0952 -0.1497,-0.0506 -0.2922,-0.1206 -0.4238,-0.2083 -0.1443,-0.0962 -0.2787,-0.2064 -0.4011,-0.3292 -0.113,-0.1133 -0.2154,-0.2367 -0.3056,-0.3689 -0.0964,-0.141 -0.1819,-0.2892 -0.2558,-0.4433 -0.126,-0.2625 -0.2456,-0.528 -0.3587,-0.7962 -0.3479,-0.825 -0.6946,-1.6505 -1.0401,-2.4764 -0.1672,-0.3996 -0.3344,-0.7991 -0.5016,-1.1986 -0.1192,-0.2848 -0.2385,-0.5696 -0.3579,-0.8544 -0.1417,-0.338 -0.2835,-0.676 -0.4253,-1.014 -0.2841,-0.6769 -0.5681,-1.3538 -0.8522,-2.0307 -0.1324,-0.3156 -0.2648,-0.6312 -0.3972,-0.9468 -0.173,-0.4127 -0.346,-0.8253 -0.519,-1.238 -0.1823,-0.435 -0.3646,-0.87 -0.5469,-1.305 -0.1638,-0.3911 -0.3276,-0.7821 -0.4914,-1.1732 -0.6727,-1.6065 -1.3454,-3.213 -2.0182,-4.8195 -0.4307,-1.0283 -0.8615,-2.0567 -1.2924,-3.0849 -0.2921,-0.697 -0.5843,-1.394 -0.8766,-2.0909 -0.1523,-0.3633 -0.305,-0.7264 -0.458,-1.0894l-0.4746 -1.1262 3.0936 0.0017 3.0936 0.0017 2.8997 7.2497z"/>
  <path class="fil1" d="M46.2329 14.9109c0.1438,0.0399 0.2762,0.1132 0.3864,0.2137 0.1143,0.1042 0.2055,0.2314 0.2674,0.3732 0.0623,0.1424 0.0941,0.2964 0.0934,0.4518 -0.0007,0.1508 -0.036,0.2996 -0.1031,0.4347 -0.0451,0.0906 -0.0999,0.1761 -0.1635,0.2548 -0.0584,0.0722 -0.1267,0.1358 -0.2029,0.1889 -0.076,0.0529 -0.1591,0.0947 -0.2469,0.1242 -0.0951,0.032 -0.1936,0.0532 -0.2934,0.0634 -0.1492,0.0152 -0.2999,0.002 -0.4442,-0.0387 -0.1401,-0.0396 -0.2705,-0.1078 -0.3829,-0.2002 -0.1132,-0.0931 -0.206,-0.2084 -0.2728,-0.3388 -0.0694,-0.1355 -0.1135,-0.2825 -0.1301,-0.4339 -0.0113,-0.1027 -0.0056,-0.2066 0.0166,-0.3075 0.0225,-0.1021 0.061,-0.2 0.114,-0.2901 0.0547,-0.093 0.1233,-0.1771 0.2033,-0.2495 0.0831,-0.0752 0.176,-0.1388 0.2761,-0.1892 0.0715,-0.0359 0.1454,-0.067 0.2211,-0.0929 0.0603,-0.0207 0.1231,-0.0332 0.1867,-0.0373 0.0675,-0.0043 0.1352,-0.0005 0.2017,0.0114 0.0919,0.0164 0.183,0.0372 0.2729,0.0622z"/>
  <path class="fil1" d="M58.9428 16.805l0 1.0274 0.9879 0 0.9879 0 0 0.7113 0 0.7113 -0.9879 0 -0.9879 0 0 2.0442c0,0.5784 0.0049,1.1567 0.0148,1.7349 0.0028,0.1607 0.0394,0.3189 0.1075,0.4645 0.0527,0.1125 0.1584,0.1908 0.2814,0.2083 0.2478,0.0353 0.4977,0.053 0.748,0.053l0.8241 0 0 0.8299 0 0.8299 -0.494 0.0158c-0.3851,0.0123 -0.7703,0.0184 -1.1556,0.0181 -0.2168,-0.0001 -0.4334,-0.0178 -0.6474,-0.0528 -0.154,-0.0252 -0.3037,-0.072 -0.4447,-0.139 -0.1418,-0.0675 -0.2737,-0.1543 -0.3917,-0.2579 -0.1591,-0.1396 -0.2932,-0.3054 -0.3966,-0.4901 -0.1057,-0.1889 -0.1808,-0.3935 -0.2222,-0.6059 -0.0596,-0.3051 -0.0927,-0.6148 -0.0991,-0.9256 -0.0116,-0.564 -0.014,-1.1281 -0.007,-1.6921l0.0251 -2.0352 -0.573 0.0001 -0.573 0.0001 0 -0.7113 0 -0.7113 0.5532 0 0.5532 0 0 -1.0274 0 -1.0274 0.9484 0 0.9484 0 0 1.0274z"/>
  <path class="fil1" d="M32.3019 17.7681c0.3839,0.1292 0.7454,0.3173 1.0715,0.5574 0.3144,0.2316 0.5863,0.5161 0.8033,0.8407 0.224,0.335 0.3906,0.7051 0.493,1.0948 0.1113,0.4234 0.1672,0.8596 0.1664,1.2974 -0.0007,0.4173 -0.0485,0.8333 -0.1424,1.2398 -0.0855,0.3702 -0.2259,0.7256 -0.4166,1.0543 -0.183,0.3155 -0.4148,0.6003 -0.6866,0.8436 -0.2804,0.251 -0.5955,0.4604 -0.9354,0.6219 -0.1249,0.0593 -0.2514,0.1151 -0.3794,0.1673 -0.0863,0.0352 -0.1756,0.0628 -0.2668,0.0824 -0.098,0.0211 -0.1975,0.0348 -0.2976,0.0409 -0.1706,0.0105 -0.3413,0.0181 -0.5121,0.0228 -0.2199,0.0061 -0.44,0.003 -0.6597,-0.009 -0.1633,-0.009 -0.3254,-0.034 -0.4838,-0.0747 -0.1501,-0.0386 -0.2956,-0.0932 -0.434,-0.1628 -0.1703,-0.0857 -0.3354,-0.1812 -0.4946,-0.286l-0.4544 -0.2992 0 1.7723 0 1.7723 -0.9089 0 -0.9089 0 0 -5.2558 0 -5.2558 0.9089 0 0.9089 0 0 0.4112 0 0.4112 0.2964 -0.2786c0.0926,-0.087 0.1886,-0.1703 0.2879,-0.2497 0.0802,-0.0641 0.1651,-0.1221 0.254,-0.1735 0.0863,-0.0499 0.1764,-0.0929 0.2694,-0.1286 0.1095,-0.0421 0.2211,-0.0788 0.3341,-0.1101 0.1582,-0.0438 0.3203,-0.072 0.484,-0.0844 0.2053,-0.0155 0.4112,-0.0207 0.617,-0.0156 0.2052,0.005 0.41,0.0203 0.6136,0.0457 0.1608,0.0201 0.3192,0.0562 0.4728,0.1079zm-2.1738 1.5936c-0.1119,0.0368 -0.2218,0.0795 -0.3293,0.1278 -0.091,0.0409 -0.1783,0.0897 -0.2609,0.1456 -0.0766,0.0519 -0.148,0.1109 -0.2134,0.1764 -0.0679,0.0679 -0.1298,0.1415 -0.1852,0.22 -0.0744,0.1055 -0.1401,0.2168 -0.1964,0.3329 -0.0507,0.1045 -0.0895,0.2144 -0.1158,0.3276 -0.031,0.1336 -0.0505,0.2696 -0.0583,0.4066 -0.0114,0.2008 -0.0171,0.4018 -0.0171,0.6029 0,0.1615 0.0024,0.3231 0.0071,0.4846 0.0028,0.0948 0.0117,0.1893 0.0268,0.283 0.0123,0.0764 0.0318,0.1514 0.0582,0.2241 0.0312,0.086 0.0673,0.1702 0.1082,0.2522 0.0499,0.1001 0.1096,0.1949 0.1784,0.2831 0.0703,0.0902 0.1489,0.1736 0.2348,0.2492 0.0873,0.0768 0.1814,0.1455 0.2812,0.2051 0.1005,0.06 0.2062,0.1109 0.3159,0.152 0.1192,0.0447 0.2445,0.0712 0.3716,0.0784 0.1864,0.0107 0.3733,0.012 0.5599,0.0041 0.1874,-0.008 0.3743,-0.0253 0.56,-0.052 0.1299,-0.0187 0.2565,-0.0557 0.3761,-0.1099 0.1726,-0.0783 0.3307,-0.1851 0.4677,-0.3161 0.1406,-0.1344 0.2594,-0.2898 0.352,-0.4607 0.1,-0.1844 0.1732,-0.382 0.2177,-0.587 0.0488,-0.2252 0.0734,-0.4549 0.0734,-0.6854 0,-0.2604 -0.0204,-0.5203 -0.0611,-0.7775 -0.0332,-0.2101 -0.0964,-0.4144 -0.1876,-0.6066 -0.0812,-0.1711 -0.1906,-0.3271 -0.3237,-0.4617 -0.1366,-0.1381 -0.2939,-0.2539 -0.4662,-0.3434 -0.1236,-0.0642 -0.2546,-0.1129 -0.39,-0.1451 -0.1614,-0.0383 -0.3253,-0.0648 -0.4905,-0.0793 -0.1642,-0.0144 -0.3293,-0.0167 -0.4938,-0.007 -0.1359,0.008 -0.2701,0.0336 -0.3994,0.0761z"/>
  <path class="fil1" d="M41.0529 17.7622c0.1676,0.0516 0.3326,0.1116 0.4943,0.1795 0.1428,0.06 0.2811,0.1303 0.4139,0.2102 0.1308,0.0787 0.2556,0.1669 0.3735,0.2638 0.1301,0.107 0.2542,0.221 0.3719,0.3415 0.3717,0.3807 0.6626,0.833 0.8549,1.3292 0.1952,0.5038 0.2912,1.0408 0.2828,1.581 -0.0085,0.5423 -0.1213,1.0781 -0.3321,1.5778 -0.2087,0.4948 -0.5136,0.9434 -0.8968,1.3197 -0.3702,0.3635 -0.8135,0.6445 -1.3002,0.8242 -0.5099,0.1882 -1.0503,0.2811 -1.5937,0.2739 -0.5468,-0.0072 -1.088,-0.1142 -1.5964,-0.3156 -0.4897,-0.194 -0.9347,-0.4864 -1.3072,-0.8589 -0.1881,-0.1881 -0.3573,-0.3943 -0.5052,-0.6154 -0.1422,-0.2127 -0.2605,-0.4405 -0.3527,-0.6792 -0.0951,-0.2462 -0.1638,-0.5018 -0.2049,-0.7624 -0.045,-0.2855 -0.0669,-0.5743 -0.0655,-0.8633 0.0022,-0.4434 0.0719,-0.884 0.2066,-1.3064 0.1308,-0.4101 0.329,-0.7956 0.5864,-1.1406 0.2539,-0.3403 0.5638,-0.6352 0.9162,-0.872 0.3556,-0.239 0.7484,-0.4177 1.1621,-0.529 0.183,-0.0492 0.3702,-0.0819 0.559,-0.0977 0.23,-0.0192 0.4609,-0.0268 0.6916,-0.023 0.2304,0.0039 0.4606,0.0193 0.6895,0.0462 0.1871,0.022 0.3719,0.0609 0.552,0.1164zm-2.1849 1.6571c-0.1102,0.0498 -0.2159,0.1089 -0.3161,0.1767 -0.1029,0.0696 -0.2001,0.1472 -0.2909,0.2321 -0.0902,0.0844 -0.1737,0.1758 -0.2495,0.2734 -0.073,0.094 -0.1376,0.1942 -0.193,0.2995 -0.0738,0.1403 -0.1244,0.2915 -0.1499,0.448 -0.0348,0.2134 -0.0558,0.4288 -0.0627,0.645 -0.007,0.2163 0.0001,0.4328 0.0212,0.6483 0.0155,0.1585 0.0562,0.3135 0.1206,0.4591 0.0941,0.2127 0.2129,0.4134 0.354,0.5982 0.1262,0.1653 0.2789,0.3085 0.4519,0.4239 0.1706,0.1138 0.359,0.198 0.5576,0.249 0.2175,0.0559 0.4411,0.0837 0.6656,0.0828 0.2057,-0.0009 0.4105,-0.0277 0.6095,-0.0799 0.1865,-0.0489 0.3644,-0.1261 0.5275,-0.229 0.1637,-0.1033 0.3105,-0.2309 0.4356,-0.3786 0.1341,-0.1584 0.2481,-0.3327 0.3395,-0.5191 0.0431,-0.0879 0.0824,-0.1777 0.1177,-0.269 0.0277,-0.0716 0.049,-0.1455 0.0636,-0.2209 0.0161,-0.0829 0.026,-0.1669 0.0295,-0.2513 0.0053,-0.1271 0.0077,-0.2542 0.0072,-0.3814 -0.0008,-0.1751 -0.0122,-0.35 -0.0343,-0.5237 -0.0183,-0.144 -0.0519,-0.2857 -0.1003,-0.4225 -0.0465,-0.1316 -0.1077,-0.2576 -0.1825,-0.3755 -0.0846,-0.1335 -0.1795,-0.2602 -0.2838,-0.3789 -0.1393,-0.1587 -0.3061,-0.2907 -0.4925,-0.3899 -0.2017,-0.1073 -0.4175,-0.1854 -0.6412,-0.2318 -0.2251,-0.0467 -0.4556,-0.0614 -0.6848,-0.0435 -0.2142,0.0167 -0.4239,0.0705 -0.6197,0.1591z"/>
  <path class="fil1" d="M53.7265 17.8485c0.1872,0.0846 0.3631,0.1924 0.5235,0.3208 0.1626,0.1303 0.3089,0.2797 0.4358,0.445 0.1303,0.1698 0.2403,0.3542 0.3277,0.5495 0.0903,0.2017 0.159,0.4124 0.2049,0.6286 0.0209,0.0987 0.0338,0.199 0.0386,0.2998 0.0109,0.2332 0.0198,0.4664 0.0267,0.6997 0.0089,0.3013 0.0148,0.6027 0.0179,0.9041 0.0038,0.3731 0.0057,0.7463 0.0057,1.1195l0 2.6042 -0.9444 0 -0.9444 0 -0.0238 -2.5548 -0.0238 -2.5548 -0.2226 -0.3361c-0.1419,-0.2143 -0.3403,-0.3852 -0.5733,-0.4937 -0.2441,-0.1137 -0.5117,-0.1672 -0.7807,-0.1562 -0.2735,0.0112 -0.5404,0.0862 -0.7797,0.2191 -0.2325,0.1291 -0.428,0.3154 -0.5681,0.5415l-0.2371 0.3826 -0.0239 2.4762 -0.0239 2.4762 -0.9047 0 -0.9047 0 0 -3.7937 0 -3.7937 0.9089 0 0.9089 0 0.0094 0.2173c0.0013,0.0301 0.0022,0.0603 0.0026,0.0905 0.0005,0.0307 0.0005,0.0614 0.0002,0.0921 -0.0003,0.0271 -0.0009,0.0543 -0.002,0.0814 -0.0006,0.0175 -0.0021,0.0349 -0.0044,0.0522 -0.0032,0.0245 0.0029,0.0493 0.0171,0.0696 0.0117,0.0168 0.0334,0.0232 0.0524,0.0156 0.0392,-0.0158 0.0756,-0.0379 0.1076,-0.0656 0.0605,-0.0523 0.1194,-0.1062 0.1768,-0.1619 0.0399,-0.0387 0.0827,-0.0742 0.1281,-0.1064 0.0602,-0.0426 0.1217,-0.0832 0.1846,-0.1217 0.0673,-0.0412 0.1358,-0.0801 0.2056,-0.1168 0.0642,-0.0338 0.1299,-0.0648 0.1968,-0.093 0.0941,-0.0397 0.19,-0.0754 0.2872,-0.1068 0.0758,-0.0245 0.1536,-0.042 0.2325,-0.0524 0.0913,-0.012 0.1834,-0.0177 0.2755,-0.017 0.1539,0.0011 0.3077,0.0048 0.4614,0.011 0.1395,0.0056 0.2789,0.014 0.418,0.0252 0.1006,0.0081 0.2008,0.0214 0.3001,0.0399 0.085,0.0158 0.1689,0.0372 0.2511,0.0639 0.087,0.0283 0.1724,0.0613 0.2558,0.099z"/>
  <polygon class="fil1" points="46.8505,21.6261 46.8505,25.4198 45.8823,25.4198 44.9142,25.4198 44.9354,21.6261 44.9567,17.8324 45.9036,17.8324 46.8505,17.8324 "/>
  <path class="fil0" d="M16.1838 22.5942c0.0969,-0.2843 0.1943,-0.5685 0.2923,-0.8524l2.9739 -8.3986c0.0211,-0.0586 0.0423,-0.1172 0.0634,-0.1758 0.0626,-0.1738 0.1249,-0.3477 0.187,-0.5216 0.0646,-0.1811 0.129,-0.3622 0.1932,-0.5434 0.069,-0.1947 0.1383,-0.3893 0.2079,-0.5838 0.0769,-0.2147 0.154,-0.4293 0.2314,-0.6437 0.073,-0.2023 0.1463,-0.4045 0.2198,-0.6066 0.0556,-0.1528 0.1117,-0.3055 0.1682,-0.4579l0.3514 -0.9484 3.0187 -0.0207c0.6287,-0.0043 1.2573,-0.0076 1.886,-0.0099 0.2288,-0.0008 0.4576,0.0033 0.6862,0.0125 0.115,0.0046 0.2297,0.0154 0.3436,0.0324 0.0186,0.0028 0.0349,0.0138 0.0444,0.0301 0.0094,0.0163 0.0109,0.036 0.0041,0.0536 -0.0489,0.1251 -0.0967,0.2507 -0.1435,0.3766 -0.4679,1.2599 -0.9357,2.5197 -1.4035,3.7796 -0.4256,1.1464 -0.8511,2.2929 -1.2763,3.4395 -0.2066,0.5571 -0.4125,1.1144 -0.6176,1.672 -0.7745,2.105 -1.5507,4.2094 -2.3284,6.3132 -0.2087,0.5644 -0.4287,1.1247 -0.6599,1.6802 -0.1194,0.2869 -0.2617,0.5638 -0.4255,0.828 -0.1213,0.1956 -0.2796,0.3657 -0.466,0.5008 -0.1333,0.0965 -0.2747,0.1813 -0.4227,0.2533 -0.1337,0.0651 -0.2747,0.1141 -0.42,0.1461 -0.1653,0.0364 -0.3338,0.0567 -0.5031,0.0606 -0.2315,0.0054 -0.4632,0.0018 -0.6945,-0.0108 -0.365,-0.0198 -0.7303,-0.0328 -1.0957,-0.039 -0.4891,-0.0083 -0.9783,-0.0126 -1.4675,-0.0131 -0.2844,-0.0003 -0.5687,0.0006 -0.853,0.0025 0.6614,-1.8679 1.2814,-3.5231 1.9059,-5.3553z"/>
 </g>
</svg>
