<?xml version="1.0" encoding="UTF-8"?>
<!DOCTYPE svg PUBLIC "-//W3C//DTD SVG 1.1//EN" "http://www.w3.org/Graphics/SVG/1.1/DTD/svg11.dtd">
<!-- Creator: CorelDRAW -->
<svg xmlns="http://www.w3.org/2000/svg" xml:space="preserve" width="770.786mm" height="358.629mm" version="1.1" style="shape-rendering:geometricPrecision; text-rendering:geometricPrecision; image-rendering:optimizeQuality; fill-rule:evenodd; clip-rule:evenodd"
viewBox="0 0 112.8069 52.4864"
 xmlns:xlink="http://www.w3.org/1999/xlink"
 xmlns:xodm="http://www.corel.com/coreldraw/odm/2003">
 <defs>
  <style type="text/css">
   <![CDATA[
    .fil1 {fill:#FEFEFE}
    .fil0 {fill:#FFD000}
   ]]>
  </style>
 </defs>
 <g id="Слой_x0020_1">
  <metadata id="CorelCorpID_0Corel-Layer"/>
  <path class="fil0" d="M48.4256 0.3752c0.1364,0.051 0.2693,0.1111 0.3978,0.1796 0.149,0.0796 0.2946,0.1654 0.4363,0.2573 0.1517,0.0984 0.2994,0.2029 0.4428,0.3132 0.144,0.1108 0.2835,0.2273 0.4182,0.3492 0.5268,0.4767 0.9586,1.049 1.2723,1.6864 0.3165,0.6429 0.5118,1.339 0.5759,2.0528 0.0642,0.715 -0.0038,1.436 -0.2004,2.1264 -0.1954,0.6862 -0.518,1.3298 -0.9507,1.8971 -0.2997,0.3929 -0.6589,0.7368 -1.0645,1.0191 -0.4415,0.3073 -0.9186,0.5604 -1.4206,0.7536 -0.4989,0.192 -1.0194,0.3228 -1.5498,0.3895 -0.4813,0.0606 -0.9694,0.0424 -1.4448,-0.0537 -0.5942,-0.1201 -1.1674,-0.3277 -1.7008,-0.6159 -0.5237,-0.2829 -0.9999,-0.6463 -1.4111,-1.0766 -0.411,-0.4302 -0.7522,-0.9223 -1.0109,-1.4581 -0.2633,-0.5454 -0.4442,-1.1271 -0.5367,-1.7257 -0.0615,-0.3982 -0.0736,-0.8026 -0.0358,-1.2038 0.04,-0.4252 0.124,-0.8451 0.2506,-1.253 0.1284,-0.4136 0.2989,-0.8131 0.5086,-1.192 0.2033,-0.3674 0.4473,-0.7108 0.7274,-1.0236 0.1749,-0.1954 0.3689,-0.373 0.579,-0.5301 0.2505,-0.1873 0.5119,-0.3596 0.7827,-0.5162 0.2709,-0.1566 0.5509,-0.2972 0.8384,-0.4209 0.2415,-0.104 0.4927,-0.1837 0.7499,-0.2382 0.2493,-0.0528 0.503,-0.0826 0.7578,-0.0891 0.3026,-0.0077 0.6054,0.0013 0.907,0.0268 0.3056,0.0259 0.6096,0.0684 0.9106,0.1275 0.2625,0.0515 0.5203,0.1245 0.7708,0.2182z"/>
  <path class="fil1" d="M16.8269 15.8647c0.7511,1.8779 1.5023,3.7557 2.2536,5.6335 0.7769,1.9418 1.5539,3.8836 2.331,5.8253 0.696,1.7391 1.392,3.4781 2.0881,5.2172 0.4645,1.1604 0.9292,2.3207 1.394,3.481 0.3581,0.8939 0.7157,1.788 1.0728,2.6824 0.3315,0.8302 0.6624,1.6607 0.9926,2.4914 0.2772,0.6973 0.5541,1.3948 0.8305,2.0925 0.1177,0.297 0.2336,0.5946 0.3479,0.8928l0.5467 1.4269 1.2845 -3.7685c0.3951,-1.1592 0.7948,-2.3168 1.1992,-3.4728 0.6321,-1.8071 1.2663,-3.6135 1.9024,-5.4192 0.6419,-1.8219 1.2851,-3.6434 1.9296,-5.4645 0.2194,-0.6199 0.4458,-1.2373 0.6792,-1.8521 0.0539,-0.1419 0.1067,-0.2841 0.1584,-0.4267 0.0992,-0.2735 0.1981,-0.5472 0.2967,-0.8209 0.1158,-0.3218 0.2313,-0.6438 0.3462,-0.9659 0.1196,-0.3353 0.2389,-0.6707 0.3577,-1.0062 0.1277,-0.3606 0.256,-0.7209 0.385,-1.081 0.1423,-0.3975 0.2852,-0.7949 0.4285,-1.192 0.1352,-0.3746 0.2709,-0.749 0.4071,-1.1232 0.103,-0.283 0.2068,-0.5656 0.3114,-0.848l0.6507 -1.7562 5.5899 -0.0383c1.1641,-0.008 2.3283,-0.0141 3.4925,-0.0184 0.4236,-0.0016 0.8473,0.0061 1.2706,0.0231 0.213,0.0085 0.4254,0.0285 0.6363,0.0599 0.0344,0.0051 0.0647,0.0256 0.0822,0.0557 0.0175,0.0301 0.0202,0.0668 0.0076,0.0992 -0.0905,0.2317 -0.1791,0.4642 -0.2657,0.6974 -0.8664,2.333 -1.7327,4.666 -2.5989,6.999 -0.7882,2.1229 -1.576,4.2459 -2.3634,6.3691 -0.3826,1.0316 -0.7638,2.0636 -1.1437,3.0962 -1.4342,3.898 -2.8715,7.7949 -4.3117,11.6906 -0.3864,1.0452 -0.7938,2.0826 -1.222,3.1114 -0.2211,0.5313 -0.4846,1.0441 -0.7879,1.5332 -0.2245,0.3622 -0.5177,0.6773 -0.8629,0.9273 -0.2468,0.1788 -0.5087,0.3357 -0.7828,0.469 -0.2477,0.1205 -0.5088,0.2113 -0.7777,0.2705 -0.3062,0.0674 -0.6182,0.105 -0.9316,0.1123 -0.4288,0.0099 -0.8578,0.0033 -1.286,-0.02 -0.6758,-0.0367 -1.3523,-0.0608 -2.029,-0.0722 -0.9057,-0.0153 -1.8116,-0.0234 -2.7174,-0.0242 -0.8753,-0.0008 -1.7507,0.0041 -2.626,0.0146 -0.4291,0.0052 -0.8577,0.0298 -1.2846,0.0736 -0.3381,0.0348 -0.6786,0.0401 -1.0176,0.0159 -0.2984,-0.0213 -0.593,-0.0805 -0.8764,-0.1762 -0.2773,-0.0937 -0.5411,-0.2233 -0.7847,-0.3857 -0.2672,-0.1781 -0.516,-0.3823 -0.7428,-0.6095 -0.2093,-0.2097 -0.3988,-0.4384 -0.566,-0.6831 -0.1785,-0.2612 -0.3368,-0.5356 -0.4737,-0.8208 -0.2332,-0.486 -0.4547,-0.9777 -0.6642,-1.4744 -0.6441,-1.5277 -1.2862,-3.0563 -1.9261,-4.5858 -0.3096,-0.7399 -0.6192,-1.4797 -0.9289,-2.2196 -0.2208,-0.5274 -0.4417,-1.0548 -0.6627,-1.5821 -0.2624,-0.626 -0.5249,-1.2518 -0.7875,-1.8777 -0.526,-1.2535 -1.052,-2.507 -1.5781,-3.7605 -0.2453,-0.5844 -0.4904,-1.1688 -0.7355,-1.7533 -0.3204,-0.7641 -0.6408,-1.5283 -0.9611,-2.2925 -0.3376,-0.8055 -0.6752,-1.611 -1.0126,-2.4165 -0.3034,-0.7242 -0.6067,-1.4483 -0.91,-2.1726 -1.2457,-2.9749 -2.4914,-5.9497 -3.7372,-8.9245 -0.7975,-1.9043 -1.5952,-3.8084 -2.3931,-5.7125 -0.5409,-1.2907 -1.0819,-2.5813 -1.6232,-3.8718 -0.2821,-0.6727 -0.5648,-1.3451 -0.8481,-2.0172l-0.8789 -2.0855 5.7287 0.0032 5.7287 0.0032 5.3696 13.4247z"/>
  <path class="fil1" d="M85.6124 27.6115c0.2662,0.0739 0.5114,0.2095 0.7156,0.3957 0.2117,0.193 0.3804,0.4286 0.4952,0.6911 0.1153,0.2638 0.1742,0.5488 0.173,0.8367 -0.0012,0.2793 -0.0666,0.5547 -0.1909,0.8049 -0.0834,0.1678 -0.185,0.326 -0.3028,0.4718 -0.1081,0.1338 -0.2346,0.2515 -0.3757,0.3498 -0.1407,0.0979 -0.2946,0.1754 -0.4571,0.23 -0.1762,0.0592 -0.3585,0.0986 -0.5434,0.1174 -0.2762,0.0281 -0.5554,0.0038 -0.8226,-0.0717 -0.2594,-0.0733 -0.5008,-0.1996 -0.709,-0.3708 -0.2095,-0.1723 -0.3815,-0.3859 -0.5052,-0.6274 -0.1285,-0.2509 -0.2101,-0.5232 -0.2408,-0.8034 -0.0208,-0.1902 -0.0104,-0.3826 0.0308,-0.5695 0.0417,-0.189 0.113,-0.3704 0.2112,-0.5372 0.1013,-0.1722 0.2283,-0.328 0.3764,-0.4621 0.1538,-0.1393 0.3258,-0.2571 0.5112,-0.3503 0.1324,-0.0665 0.2692,-0.124 0.4095,-0.1721 0.1117,-0.0383 0.2279,-0.0615 0.3457,-0.069 0.1249,-0.008 0.2504,-0.0009 0.3736,0.0211 0.1702,0.0304 0.3389,0.0689 0.5054,0.1151z"/>
  <path class="fil1" d="M109.148 31.1189l0 1.9026 1.8294 0 1.8294 0 0 1.3172 0 1.3172 -1.8294 0 -1.8294 0 0 3.7854c0,1.071 0.0091,2.1419 0.0274,3.2127 0.0051,0.2976 0.0729,0.5906 0.1991,0.8601 0.0976,0.2083 0.2934,0.3534 0.5211,0.3858 0.4588,0.0653 0.9216,0.0981 1.3851,0.0981l1.5261 0 0 1.5367 0 1.5367 -0.9147 0.0293c-0.713,0.0228 -1.4264,0.034 -2.1399,0.0336 -0.4015,-0.0002 -0.8025,-0.0329 -1.1988,-0.0977 -0.2852,-0.0466 -0.5624,-0.1333 -0.8234,-0.2575 -0.2626,-0.1249 -0.5068,-0.2857 -0.7254,-0.4776 -0.2945,-0.2586 -0.5429,-0.5656 -0.7344,-0.9076 -0.1958,-0.3498 -0.3347,-0.7286 -0.4115,-1.1221 -0.1103,-0.565 -0.1717,-1.1385 -0.1836,-1.714 -0.0215,-1.0443 -0.0259,-2.0889 -0.013,-3.1334l0.0465 -3.7687 -1.0611 0.0001 -1.0611 0.0001 0 -1.3172 0 -1.3172 1.0245 0 1.0245 0 0 -1.9026 0 -1.9026 1.7562 0 1.7562 0 0 1.9026z"/>
  <path class="fil1" d="M59.8154 32.9022c0.7108,0.2392 1.3803,0.5875 1.9841,1.0322 0.5822,0.4288 1.0856,0.9557 1.4875,1.5568 0.4148,0.6203 0.7234,1.3056 0.913,2.0273 0.206,0.7841 0.3096,1.5918 0.3082,2.4025 -0.0014,0.7727 -0.0898,1.543 -0.2637,2.2959 -0.1583,0.6855 -0.4184,1.3437 -0.7714,1.9522 -0.339,0.5843 -0.7682,1.1116 -1.2715,1.5621 -0.5192,0.4647 -1.1026,0.8526 -1.7321,1.1515 -0.2313,0.1098 -0.4656,0.2131 -0.7026,0.3097 -0.1599,0.0652 -0.3252,0.1162 -0.494,0.1526 -0.1815,0.0391 -0.3657,0.0644 -0.551,0.0758 -0.3159,0.0194 -0.632,0.0334 -0.9484,0.0422 -0.4072,0.0112 -0.8148,0.0056 -1.2216,-0.0167 -0.3024,-0.0166 -0.6026,-0.063 -0.8959,-0.1384 -0.2779,-0.0714 -0.5474,-0.1725 -0.8037,-0.3015 -0.3153,-0.1587 -0.6211,-0.3355 -0.9159,-0.5296l-0.8415 -0.5541 0 3.2818 0 3.2818 -1.6831 0 -1.6831 0 0 -9.7325 0 -9.7325 1.6831 0 1.6831 0 0 0.7615 0 0.7615 0.5488 -0.5158c0.1715,-0.1611 0.3493,-0.3154 0.5331,-0.4623 0.1485,-0.1187 0.3058,-0.2261 0.4704,-0.3212 0.1598,-0.0923 0.3266,-0.172 0.4989,-0.2381 0.2028,-0.0779 0.4093,-0.1459 0.6188,-0.2039 0.293,-0.0811 0.5932,-0.1334 0.8963,-0.1562 0.3801,-0.0286 0.7614,-0.0383 1.1425,-0.029 0.3799,0.0093 0.7592,0.0375 1.1363,0.0846 0.2978,0.0372 0.5911,0.1041 0.8755,0.1998zm-4.0254 2.9509c-0.2073,0.0682 -0.4108,0.1471 -0.6098,0.2367 -0.1685,0.0758 -0.3301,0.166 -0.4831,0.2697 -0.1418,0.0961 -0.2741,0.2054 -0.3952,0.3266 -0.1257,0.1258 -0.2404,0.2621 -0.3429,0.4074 -0.1378,0.1953 -0.2595,0.4014 -0.3637,0.6165 -0.0939,0.1936 -0.1658,0.397 -0.2145,0.6066 -0.0574,0.2474 -0.0936,0.4993 -0.108,0.7529 -0.0211,0.3718 -0.0317,0.7441 -0.0317,1.1165 0,0.2991 0.0044,0.5983 0.0131,0.8973 0.0051,0.1756 0.0217,0.3506 0.0496,0.524 0.0228,0.1414 0.0588,0.2804 0.1077,0.415 0.0578,0.1593 0.1247,0.3152 0.2003,0.4669 0.0923,0.1853 0.203,0.3609 0.3303,0.5241 0.1303,0.1671 0.2758,0.3216 0.4348,0.4615 0.1616,0.1423 0.3358,0.2694 0.5207,0.3797 0.1862,0.1112 0.3819,0.2054 0.5849,0.2816 0.2208,0.0828 0.4528,0.1318 0.6882,0.1452 0.3452,0.0197 0.6912,0.0223 1.0367,0.0076 0.3471,-0.0148 0.6932,-0.0469 1.037,-0.0963 0.2406,-0.0346 0.475,-0.1031 0.6964,-0.2035 0.3196,-0.145 0.6123,-0.3428 0.8661,-0.5853 0.2604,-0.2488 0.4803,-0.5366 0.6519,-0.8532 0.1851,-0.3415 0.3208,-0.7074 0.4031,-1.087 0.0904,-0.417 0.1359,-0.8424 0.1359,-1.2691 0,-0.4821 -0.0378,-0.9635 -0.1131,-1.4397 -0.0615,-0.3891 -0.1784,-0.7673 -0.3473,-1.1233 -0.1503,-0.3168 -0.3529,-0.6058 -0.5995,-0.855 -0.2529,-0.2557 -0.5442,-0.4702 -0.8634,-0.636 -0.2288,-0.1188 -0.4714,-0.209 -0.7223,-0.2686 -0.2988,-0.071 -0.6024,-0.12 -0.9083,-0.1468 -0.3041,-0.0266 -0.6097,-0.0309 -0.9144,-0.013 -0.2516,0.0149 -0.5002,0.0622 -0.7397,0.141z"/>
  <path class="fil1" d="M76.0202 32.8914c0.3104,0.0956 0.6159,0.2066 0.9153,0.3324 0.2645,0.1112 0.5206,0.2412 0.7664,0.3892 0.2422,0.1457 0.4734,0.309 0.6917,0.4885 0.2409,0.1981 0.4708,0.4092 0.6887,0.6324 0.6884,0.705 1.227,1.5426 1.583,2.4614 0.3615,0.9329 0.5393,1.9273 0.5236,2.9276 -0.0157,1.0042 -0.2246,1.9964 -0.615,2.9218 -0.3865,0.9162 -0.9511,1.747 -1.6606,2.4438 -0.6855,0.6732 -1.5064,1.1934 -2.4077,1.5262 -0.9442,0.3486 -1.9448,0.5205 -2.9512,0.5072 -1.0126,-0.0133 -2.0147,-0.2115 -2.9562,-0.5845 -0.9069,-0.3593 -1.7308,-0.9007 -2.4206,-1.5904 -0.3483,-0.3483 -0.6617,-0.7301 -0.9355,-1.1396 -0.2633,-0.3939 -0.4824,-0.8158 -0.6531,-1.2577 -0.1761,-0.4558 -0.3033,-0.9292 -0.3794,-1.4118 -0.0834,-0.5287 -0.124,-1.0634 -0.1213,-1.5986 0.0041,-0.821 0.1331,-1.6369 0.3826,-2.4191 0.2422,-0.7594 0.6093,-1.4733 1.0859,-2.1121 0.4702,-0.6301 1.044,-1.1762 1.6966,-1.6147 0.6586,-0.4425 1.3858,-0.7735 2.152,-0.9796 0.3389,-0.0911 0.6854,-0.1517 1.0352,-0.1808 0.4259,-0.0355 0.8534,-0.0497 1.2807,-0.0425 0.4267,0.0072 0.8528,0.0357 1.2767,0.0855 0.3465,0.0407 0.6887,0.1129 1.0222,0.2156zm-4.0459 3.0686c-0.204,0.0923 -0.3998,0.2017 -0.5853,0.3272 -0.1905,0.129 -0.3706,0.2727 -0.5386,0.4298 -0.1671,0.1563 -0.3216,0.3256 -0.4621,0.5062 -0.1353,0.174 -0.2549,0.3596 -0.3574,0.5546 -0.1366,0.2598 -0.2303,0.5398 -0.2776,0.8295 -0.0645,0.3952 -0.1033,0.7941 -0.1162,1.1943 -0.0129,0.4006 0.0002,0.8015 0.0392,1.2004 0.0287,0.2935 0.1041,0.5804 0.2234,0.8501 0.1742,0.3938 0.3942,0.7656 0.6555,1.1078 0.2337,0.3061 0.5164,0.5712 0.8368,0.785 0.3158,0.2107 0.6649,0.3666 1.0326,0.4612 0.4027,0.1035 0.8169,0.155 1.2326,0.1533 0.381,-0.0016 0.7602,-0.0513 1.1287,-0.1479 0.3454,-0.0905 0.6748,-0.2336 0.9768,-0.4241 0.3031,-0.1912 0.575,-0.4276 0.8066,-0.7011 0.2484,-0.2933 0.4595,-0.6161 0.6286,-0.9612 0.0798,-0.1628 0.1525,-0.329 0.218,-0.4982 0.0513,-0.1326 0.0907,-0.2695 0.1178,-0.409 0.0298,-0.1536 0.0481,-0.3091 0.0546,-0.4654 0.0099,-0.2353 0.0143,-0.4708 0.0133,-0.7063 -0.0014,-0.3242 -0.0226,-0.6481 -0.0635,-0.9697 -0.0339,-0.2667 -0.0961,-0.529 -0.1857,-0.7824 -0.0861,-0.2438 -0.1995,-0.477 -0.3379,-0.6954 -0.1567,-0.2472 -0.3324,-0.4818 -0.5255,-0.7017 -0.258,-0.2938 -0.5669,-0.5384 -0.912,-0.7221 -0.3734,-0.1987 -0.7731,-0.3433 -1.1873,-0.4292 -0.4168,-0.0865 -0.8437,-0.1136 -1.2681,-0.0805 -0.3967,0.031 -0.785,0.1306 -1.1476,0.2946z"/>
  <path class="fil1" d="M99.4887 33.0513c0.3467,0.1566 0.6724,0.3562 0.9693,0.594 0.3011,0.2412 0.5721,0.5179 0.807,0.824 0.2412,0.3143 0.4449,0.6559 0.6069,1.0175 0.1673,0.3735 0.2944,0.7638 0.3794,1.1641 0.0388,0.1828 0.0627,0.3684 0.0714,0.5551 0.0202,0.4318 0.0367,0.8637 0.0494,1.2957 0.0164,0.5579 0.0274,1.116 0.0331,1.6742 0.0071,0.691 0.0106,1.382 0.0106,2.073l0 4.8225 -1.7487 0 -1.7487 0 -0.0441 -4.7309 -0.0441 -4.7309 -0.4121 -0.6225c-0.2628,-0.3969 -0.6301,-0.7132 -1.0616,-0.9142 -0.4519,-0.2105 -0.9475,-0.3097 -1.4456,-0.2892 -0.5064,0.0208 -1.0007,0.1596 -1.4438,0.4057 -0.4305,0.2391 -0.7925,0.5841 -1.0519,1.0027l-0.4391 0.7085 -0.0443 4.5854 -0.0443 4.5854 -1.6753 0 -1.6754 0 0 -7.0249 0 -7.0249 1.6831 0 1.6831 0 0.0173 0.4025c0.0024,0.0558 0.004,0.1117 0.0049,0.1675 0.0009,0.0568 0.001,0.1137 0.0004,0.1705 -0.0006,0.0503 -0.0018,0.1005 -0.0036,0.1507 -0.0012,0.0323 -0.0039,0.0646 -0.0081,0.0967 -0.0059,0.0454 0.0054,0.0913 0.0316,0.1288 0.0217,0.031 0.0619,0.043 0.097,0.0289 0.0727,-0.0292 0.14,-0.0703 0.1992,-0.1215 0.112,-0.0968 0.2212,-0.1967 0.3274,-0.2997 0.0739,-0.0716 0.1532,-0.1375 0.2372,-0.197 0.1114,-0.0789 0.2254,-0.1541 0.3418,-0.2254 0.1245,-0.0763 0.2515,-0.1484 0.3808,-0.2163 0.119,-0.0625 0.2405,-0.12 0.3644,-0.1722 0.1743,-0.0736 0.3518,-0.1395 0.5319,-0.1977 0.1403,-0.0453 0.2845,-0.0778 0.4306,-0.097 0.1691,-0.0222 0.3396,-0.0327 0.5101,-0.0315 0.2849,0.0021 0.5698,0.0089 0.8545,0.0203 0.2583,0.0103 0.5164,0.0259 0.7741,0.0467 0.1864,0.015 0.3719,0.0397 0.5557,0.0739 0.1574,0.0293 0.3127,0.0688 0.465,0.1183 0.1611,0.0524 0.3193,0.1136 0.4737,0.1833z"/>
  <polygon class="fil1" points="86.756,40.0464 86.756,47.0713 84.9632,47.0714 83.1704,47.0714 83.2097,40.0464 83.2491,33.0214 85.0025,33.0214 86.756,33.0214 "/>
  <path class="fil0" d="M29.9685 41.8391c0.1794,-0.5265 0.3599,-1.0527 0.5412,-1.5785l5.507 -15.5522c0.0392,-0.1085 0.0783,-0.217 0.1173,-0.3255 0.1158,-0.3218 0.2313,-0.6438 0.3462,-0.9659 0.1196,-0.3353 0.2389,-0.6707 0.3577,-1.0062 0.1277,-0.3606 0.256,-0.7209 0.385,-1.081 0.1423,-0.3975 0.2852,-0.7949 0.4285,-1.192 0.1352,-0.3746 0.2709,-0.749 0.4071,-1.1232 0.103,-0.283 0.2068,-0.5656 0.3114,-0.848l0.6507 -1.7562 5.5899 -0.0383c1.1641,-0.008 2.3283,-0.0141 3.4925,-0.0184 0.4236,-0.0016 0.8473,0.0061 1.2706,0.0231 0.213,0.0085 0.4254,0.0285 0.6363,0.0599 0.0344,0.0051 0.0647,0.0256 0.0822,0.0557 0.0175,0.0301 0.0202,0.0668 0.0076,0.0992 -0.0905,0.2317 -0.1791,0.4642 -0.2657,0.6974 -0.8664,2.333 -1.7327,4.666 -2.5989,6.999 -0.7882,2.1229 -1.576,4.2459 -2.3634,6.3691 -0.3826,1.0316 -0.7638,2.0636 -1.1437,3.0962 -1.4342,3.898 -2.8715,7.7949 -4.3117,11.6906 -0.3864,1.0452 -0.7938,2.0826 -1.222,3.1114 -0.2211,0.5313 -0.4846,1.0441 -0.7879,1.5332 -0.2245,0.3622 -0.5177,0.6773 -0.8629,0.9273 -0.2468,0.1788 -0.5087,0.3357 -0.7828,0.469 -0.2477,0.1205 -0.5088,0.2113 -0.7777,0.2705 -0.3062,0.0674 -0.6182,0.105 -0.9316,0.1123 -0.4288,0.0099 -0.8578,0.0033 -1.286,-0.02 -0.6758,-0.0367 -1.3523,-0.0608 -2.029,-0.0722 -0.9057,-0.0153 -1.8116,-0.0234 -2.7174,-0.0242 -0.5265,-0.0005 -1.0531,0.0011 -1.5796,0.0047 1.2248,-3.4589 2.3728,-6.5239 3.5292,-9.9167z"/>
 </g>
</svg>
