<?xml version="1.0" encoding="UTF-8"?>
<!DOCTYPE svg PUBLIC "-//W3C//DTD SVG 1.1//EN" "http://www.w3.org/Graphics/SVG/1.1/DTD/svg11.dtd">
<!-- Creator: CorelDRAW -->
<svg xmlns="http://www.w3.org/2000/svg" xml:space="preserve" width="41.0574mm" height="9.8962mm" version="1.1" style="shape-rendering:geometricPrecision; text-rendering:geometricPrecision; image-rendering:optimizeQuality; fill-rule:evenodd; clip-rule:evenodd"
viewBox="0 0 51.0605 12.3073"
 xmlns:xlink="http://www.w3.org/1999/xlink"
 xmlns:xodm="http://www.corel.com/coreldraw/odm/2003">
 <defs>
  <style type="text/css">
   <![CDATA[
    .fil1 {fill:#FEFEFE}
    .fil0 {fill:#FFD000}
    .fil2 {fill:#FEFEFE;fill-rule:nonzero}
   ]]>
  </style>
 </defs>
 <g id="Слой_x0020_1">
  <metadata id="CorelCorpID_0Corel-Layer"/>
  <path class="fil0" d="M11.8456 0.9872c0,0.1953 -0.058,0.3861 -0.1664,0.5484 -0.1084,0.1623 -0.2627,0.2889 -0.443,0.3635 -0.1803,0.0747 -0.3788,0.0943 -0.5703,0.0562 -0.1915,-0.0381 -0.3674,-0.1321 -0.5054,-0.2701 -0.138,-0.138 -0.2321,-0.314 -0.2701,-0.5054 -0.0382,-0.1915 -0.0187,-0.39 0.0561,-0.5705 0.0747,-0.1803 0.2012,-0.3345 0.3636,-0.443 0.1623,-0.1084 0.3532,-0.1664 0.5483,-0.1664 0.2619,0 0.513,0.1041 0.6981,0.2891 0.1852,0.1852 0.2891,0.4363 0.2891,0.6981zm-1.9743 1.9743l1.9743 0 0 7.8971 -0.9872 0c-0.2618,0 -0.5129,-0.104 -0.6979,-0.2891 -0.1852,-0.1851 -0.2891,-0.4361 -0.2891,-0.6979l0 -6.91z"/>
  <path class="fil1" d="M6.7125 2.9615l2.1716 0 -3.4549 7.8971 -0.9871 0c-0.2882,0 -0.5701,-0.0839 -0.8111,-0.2418 -0.2411,-0.1578 -0.431,-0.3825 -0.5462,-0.6467l-3.0848 -7.0086 2.1716 0 2.2705 5.1875 2.2704 -5.1875z"/>
  <path class="fil2" d="M14.2822 6.1577l3.2274 0 0 1.2205 -3.2274 0 0 -1.2205zm9.4338 -2.4645c0.6103,0 1.156,0.1329 1.6371,0.399 0.4812,0.266 0.8596,0.6427 1.1325,1.1267 0.2727,0.484 0.4108,1.0444 0.4108,1.6782 0,0.6338 -0.1369,1.1951 -0.4108,1.6841 -0.2738,0.489 -0.6513,0.8664 -1.1325,1.1325 -0.4812,0.266 -1.0269,0.3991 -1.6371,0.3991 -0.8451,0 -1.514,-0.2817 -2.0069,-0.8451l0 3.0396 -0.456 0c-0.9092,-0.0526 -1.011,-0.7151 -1.011,-1.3043l0 -7.2393 1.3966 0 0 0.8215c0.2425,-0.2974 0.5419,-0.5203 0.8978,-0.669 0.3559,-0.1486 0.7492,-0.223 1.1795,-0.223zm-0.1643 5.1637c0.5397,0 0.9848,-0.1811 1.3319,-0.5399 0.3471,-0.3589 0.5223,-0.8332 0.5223,-1.42 0,-0.5867 -0.1752,-1.0611 -0.5223,-1.42 -0.3471,-0.3588 -0.7922,-0.5399 -1.3319,-0.5399 -0.3521,0 -0.6701,0.0812 -0.9506,0.2405 -0.2807,0.1593 -0.5057,0.3904 -0.669,0.6866 -0.1632,0.2962 -0.2465,0.6415 -0.2465,1.0327 0,0.3912 0.0833,0.7365 0.2465,1.0327 0.1633,0.2962 0.3883,0.5273 0.669,0.6866 0.2806,0.1593 0.5986,0.2405 0.9506,0.2405zm7.5578 1.2558c-0.6338,0 -1.2058,-0.138 -1.7134,-0.4108 -0.5075,-0.2729 -0.9067,-0.6563 -1.1913,-1.1443 -0.2845,-0.4879 -0.4283,-1.0425 -0.4283,-1.6606 0,-0.6181 0.1428,-1.1698 0.4283,-1.6548 0.2855,-0.485 0.6838,-0.8654 1.1913,-1.1383 0.5075,-0.2727 1.0796,-0.4108 1.7134,-0.4108 0.6416,0 1.2166,0.1369 1.7252,0.4108 0.5085,0.2738 0.9066,0.6544 1.1912,1.1383 0.2845,0.4841 0.4284,1.0367 0.4284,1.6548 0,0.6181 -0.1439,1.1726 -0.4284,1.6606 -0.2845,0.4879 -0.6826,0.8704 -1.1912,1.1443 -0.5085,0.2738 -1.0836,0.4108 -1.7252,0.4108zm0 -1.2558c0.5399,0 0.9858,-0.18 1.3379,-0.5399 0.3521,-0.3599 0.5282,-0.8332 0.5282,-1.42 0,-0.5867 -0.1761,-1.0601 -0.5282,-1.42 -0.3521,-0.3599 -0.798,-0.5399 -1.3379,-0.5399 -0.5399,0 -0.9848,0.1811 -1.3319,0.5399 -0.3471,0.3589 -0.5223,0.8332 -0.5223,1.42 0,0.5867 0.1752,1.0611 0.5223,1.42 0.3471,0.3588 0.7921,0.5399 1.3319,0.5399zm4.7531 -5.0933l1.467 0 0 6.2669c-1.6678,0 -1.467,-1.0097 -1.467,-1.291l0 -4.9759zm0.7393 -1.0327c-0.266,0 -0.4901,-0.0852 -0.669,-0.2523 -0.179,-0.1671 -0.2699,-0.3776 -0.2699,-0.6279 0,-0.2503 0.091,-0.4606 0.2699,-0.6278 0.179,-0.1671 0.4029,-0.2523 0.669,-0.2523 0.266,0 0.4901,0.0812 0.669,0.2405 0.179,0.1593 0.27,0.3619 0.27,0.6044 0,0.2582 -0.0882,0.4753 -0.2641,0.6513 -0.176,0.176 -0.4009,0.2641 -0.6748,0.2641zm6.2082 0.9623c0.7902,0 1.4243,0.2308 1.9013,0.6923 0.4769,0.4615 0.7158,1.1484 0.7158,2.0539l0 3.5911c-1.654,0 -1.4789,-0.5002 -1.4789,-1.25l0 -2.1534c0,-0.5477 -0.1183,-0.9616 -0.3753,-1.2382 -0.2571,-0.2767 -0.6259,-0.4166 -1.1031,-0.4166 -0.5399,0 -0.9673,0.1634 -1.2792,0.487 -0.3119,0.3237 -0.4695,0.7943 -0.4695,1.4024l0 3.1687 -1.467 0 0 -6.2669 1.3966 0 0 0.8097c0.2425,-0.2894 0.5488,-0.5095 0.9153,-0.6571 0.3667,-0.1476 0.7825,-0.223 1.244,-0.223zm8.2503 5.9969c-0.1721,0.1409 -0.3825,0.2475 -0.6279,0.3169 -0.2454,0.0693 -0.5065,0.1057 -0.7804,0.1057 -0.6885,0 -1.2205,-0.18 -1.5961,-0.5399 -0.3756,-0.3599 -0.5634,-0.8841 -0.5634,-1.5726l0 -3.0162 -1.0327 0 0 -1.1736 1.0327 0 0 -1.4317 1.467 0 0 1.4317 1.6783 0c0,0.3912 0,0.7824 0,1.1736l-1.6783 0 0 2.9809c0,0.3031 0.0755,0.539 0.223,0.6983 0.1476,0.1593 0.3639,0.2406 0.6454,0.2406 1.0553,0 0.8806,-0.0989 1.2323,0.7862z"/>
 </g>
</svg>
